<?xml version="1.0" encoding="utf-8"?>
<!-- Generator: Adobe Illustrator 24.1.1, SVG Export Plug-In . SVG Version: 6.00 Build 0)  -->
<svg version="1.1" id="Calque_1" xmlns="http://www.w3.org/2000/svg" xmlns:xlink="http://www.w3.org/1999/xlink" x="0px" y="0px"
	 viewBox="0 0 32 32" style="enable-background:new 0 0 32 32;" xml:space="preserve">
<style type="text/css">
	.st0{fill:#DB4545;}
	.st1{fill:#D4D4D6;}
	.st2{fill:#E5E5E5;}
	.st3{fill:#B6B6B7;}
	.st4{fill:#D6D6D6;stroke:#737373;stroke-width:0.25;stroke-miterlimit:10;}
	.st5{fill:#828282;}
	.st6{fill:#D6D6D6;}
	.st7{fill:#B4B4B5;stroke:#686868;stroke-width:0.1;stroke-miterlimit:10;}
	.st8{fill:#251C72;}
	.st9{fill:#FFEE02;}
	.st10{fill:#DB2B1D;}
</style>
<polygon class="st1" points="14.09,27.01 16.44,28.94 18.97,27.06 15.92,26.34 "/>
<path class="st2" d="M24.51,22.63c0,0-2.05,2.59-2.51,2.91c-0.46,0.32-2.63,1.32-3.15,1.5c-0.53,0.18-1.95,0.81-2.32,1.05
	c-0.37,0.23,0.01,0.87,0.01,0.87s0.99-0.62,1.54-0.9c0.55-0.29,2.79-1.03,3.77-1.78c0.97-0.75,1.69-1.74,1.69-1.74l0.97,0.64V22.63z
	"/>
<path class="st2" d="M8.4,22.56c0,0,2.05,2.59,2.51,2.91c0.46,0.32,2.63,1.32,3.15,1.5s1.95,0.81,2.32,1.05s0.17,0.94,0.17,0.94
	s-1.17-0.69-1.72-0.97s-2.79-1.03-3.77-1.78c-0.97-0.75-1.69-1.74-1.69-1.74L8.4,25.09V22.56z"/>
<path class="st3" d="M15.06,25.72l1.31,0.71c0,0-1.72,0.81-2.31,0.71c-0.67-0.11-1.55-0.65-1.55-0.65s-1.2-0.62-1.61-0.94
	s-2.5-2.99-2.5-2.99l2.43,1.08l-0.85,0.4c0,0,1.04,1.13,1.43,1.41c0.39,0.28,1.33,0.78,1.79,0.84s1.18,0.07,1.38-0.02
	C15.08,26.04,15.06,25.72,15.06,25.72z"/>
<path class="st3" d="M17.85,25.79l-1.31,0.71c0,0,1.72,0.81,2.31,0.71c0.67-0.11,1.55-0.65,1.55-0.65s1.2-0.62,1.61-0.94
	c0.41-0.32,2.5-2.99,2.5-2.99l-2.43,1.08l0.85,0.4c0,0-1.04,1.13-1.43,1.41c-0.39,0.28-1.33,0.78-1.79,0.84
	c-0.46,0.06-1.18,0.07-1.38-0.02C17.84,26.11,17.85,25.79,17.85,25.79z"/>
<g>
	<path class="st4" d="M16.54,10.23h-0.17c-0.21,0-0.37-0.17-0.37-0.37V8.79c0-0.21,0.17-0.37,0.37-0.37h0.17
		c0.21,0,0.37,0.17,0.37,0.37v1.07C16.92,10.06,16.75,10.23,16.54,10.23z"/>
	<path class="st3" d="M12.85,7.92v0.66c0.95,0.44,3.55,0.44,3.55,0.44s3.11,0,3.55-0.4V7.88c-0.38-0.24-3.55-0.22-3.55-0.22
		S13.15,7.68,12.85,7.92z"/>
	<path class="st5" d="M15.53,9.01h-0.11c-0.14,0-0.25-0.11-0.25-0.25V7.93c0-0.14,0.11-0.25,0.25-0.25h0.11
		c0.14,0,0.25,0.11,0.25,0.25v0.83C15.77,8.89,15.66,9.01,15.53,9.01z"/>
	<path class="st5" d="M17.37,8.98h-0.11c-0.14,0-0.25-0.11-0.25-0.25V7.9c0-0.14,0.11-0.25,0.25-0.25h0.11
		c0.14,0,0.25,0.11,0.25,0.25v0.83C17.62,8.87,17.51,8.98,17.37,8.98z"/>
	<path class="st6" d="M16.39,3.34c-1.15,0-2.09,0.88-2.09,1.96c0,1.09,0.94,1.96,2.09,1.96c1.15,0,2.09-0.88,2.09-1.96
		C18.48,4.22,17.55,3.34,16.39,3.34z M16.39,6.5c-0.7,0-1.28-0.54-1.28-1.2c0-0.66,0.57-1.2,1.28-1.2c0.7,0,1.28,0.54,1.28,1.2
		C17.67,5.97,17.1,6.5,16.39,6.5z"/>
	<path class="st7" d="M16.45,7.68h-0.11c-0.13,0-0.24-0.11-0.24-0.24v-0.8c0-0.13,0.11-0.24,0.24-0.24h0.11
		c0.13,0,0.24,0.11,0.24,0.24v0.8C16.69,7.57,16.58,7.68,16.45,7.68z"/>
</g>
<path id="socle" class="st8" d="M7.45,11.66L11.7,8.8c0.33-0.24,0.25-0.24,0.65-0.02c0.67,0.37,2.24,1.17,4.11,1.12
	c1.93-0.05,3.53-0.72,4.15-1.09c0.41-0.24,0.23-0.18,0.63,0.01l4.24,2.86c-0.2,6.91-2.77,11.53-8.96,14.86
	C14.43,25.53,7.45,21.63,7.45,11.66z"/>
<path id="socle_1_" class="st9" d="M7.82,11.83l4.15-2.53c0.35-0.25,0.21-0.23,0.61-0.02c0.64,0.33,2.11,1.1,3.88,1.06
	c1.82-0.05,3.31-0.71,3.91-1.03c0.38-0.2,0.35-0.17,0.6,0.01l4.12,2.54c-0.3,6.54-2.73,11.04-8.58,14.17
	C14.54,25.09,7.99,21.19,7.82,11.83z"/>
<path class="st10" d="M12.4,18.09c0.05,0.18,0,5.08,0,5.08l1.72,1.3v-7.09L12.4,18.09z"/>
<rect x="15.63" y="16.67" class="st10" width="1.64" height="9.36"/>
<polygon class="st10" points="18.75,17.38 18.75,24.75 20.57,23.35 20.57,18.04 "/>
<polygon class="st10" points="22.01,18.57 22.01,21.76 23.18,20.17 23.18,18.97 "/>
<polygon class="st10" points="9.86,18.92 9.86,20.04 10.99,21.94 10.99,18.7 "/>
<polygon id="hat" class="st8" points="9.68,18.92 9.9,19.27 16.46,16.67 23.15,19.16 23.32,18.9 16.5,16.24 "/>
<path class="st8" d="M8.22,11.97c-0.05,1.14,0.2,3.11,0.51,4.01c0,0,5.16-1.98,7.74-2.97c2.62,0.99,5.19,1.98,7.81,2.97
	c0.29-1.5,0.48-2.99,0.49-4.01c0,0-2.82-1.61-4.07-2.42c-0.49,0.32-1.93,1.16-4.32,1.15c-2.29-0.02-4.09-1.15-4.09-1.15L8.22,11.97z
	"/>
</svg>
